# xmcd
#
# Track frame offsets:
#	150
#	14980
#	31545
#	57935
#	73065
#	87967
#	104537
#	120210
#	138580
#	156497
#	184577
#
# Disc length: 2510 seconds
#
# Revision: 1
# Processed by: cddbd v1.5.1PL0 Copyright (c) Steve Scherf et al.
# Submitted via: audiograbber 1.82.02
#
DISCID=9409cc0b
DTITLE=RushLow - Right Now
DYEAR=2003
DGENRE=Country
TTITLE0=Right Now
TTITLE1=Sweet Summer Rain
TTITLE2=God Only Knows
TTITLE3=I Can't Be Your Friend
TTITLE4=Still
TTITLE5=Texas Is My Kind Of Town
TTITLE6=Since When
TTITLE7=When You Dance With Me
TTITLE8=She's Out There
TTITLE9=Speechless
TTITLE10=Data
EXTD=
EXTT0=
EXTT1=
EXTT2=
EXTT3=
EXTT4=
EXTT5=
EXTT6=
EXTT7=
EXTT8=
EXTT9=
EXTT10=
PLAYORDER=
